<?xml version="1.0" encoding="utf-8"?>
<!-- Generator: Adobe Illustrator 24.2.1, SVG Export Plug-In . SVG Version: 6.00 Build 0)  -->
<svg version="1.1" id="Layer_1" xmlns="http://www.w3.org/2000/svg" xmlns:xlink="http://www.w3.org/1999/xlink" x="0px" y="0px"
	 viewBox="0 0 184.3 187.6" style="enable-background:new 0 0 184.3 187.6;" xml:space="preserve">
<style type="text/css">
	.st0{fill:none;stroke:#000000;stroke-width:12;stroke-linecap:round;stroke-miterlimit:10;}
</style>
<g>
	<path class="st0" d="M108.4,46.9l6.2-7.5c10-12.1,28-13.7,40.1-3.8l0,0c12.1,10,13.7,28,3.8,40.1L124.2,117
		c-10,12.1-28,13.7-40.1,3.8l0,0c-12.1-10-13.7-28-3.8-40.1l4.3-5.1"/>
	<path class="st0" d="M75.4,139.1l-9.1,11c-8.1,9.8-22.7,11.1-32.5,3l-4.1-3.4c-12.1-10-13.7-28-3.8-40.1l34.2-41.3
		c10-12.1,28-13.7,40.1-3.8l0,0c12.1,10,13.7,28,3.8,40.1l-3.9,4.8"/>
</g>
</svg>
