<?xml version="1.0" encoding="utf-8"?>
<!-- Generator: Adobe Illustrator 24.2.1, SVG Export Plug-In . SVG Version: 6.00 Build 0)  -->
<svg version="1.1" id="Layer_1" xmlns="http://www.w3.org/2000/svg" xmlns:xlink="http://www.w3.org/1999/xlink" x="0px" y="0px"
	 viewBox="0 0 113.4 99" style="enable-background:new 0 0 113.4 99;" xml:space="preserve">
<style type="text/css">
	.st0{fill:none;stroke:#000000;stroke-width:10;stroke-miterlimit:10;}
	.st1{stroke:#000000;stroke-width:2;stroke-miterlimit:10;}
	.st2{stroke:#000000;stroke-width:2.1604;stroke-miterlimit:10;}
</style>
<g>
	<g>
		<line class="st0" x1="37.9" y1="21.1" x2="108.7" y2="21.1"/>
		<line class="st0" x1="37.9" y1="77.8" x2="108.7" y2="77.8"/>
		<line class="st0" x1="37.9" y1="49.5" x2="108.7" y2="49.5"/>
	</g>
</g>
<g>
	<path class="st1" d="M10,79.2l2.6-1.8c5-3.5,9.3-7.7,9.3-11.7c0-2.9-1.5-5-4.8-5c-2.4,0-4.2,1-5.9,2.3L10,60.2
		c1.9-1.4,4.3-2.6,7.5-2.6c5.8,0,7.8,4,7.8,7.8c0,5.2-5.4,10-9.7,13.1c1.7-0.1,3.3-0.1,5.9-0.1h5.1v3H10V79.2z"/>
</g>
<g>
	<path class="st2" d="M27,40.7v3.1H12.1v-3.1h6V22.3c-1.3,0.7-3.7,1.6-5,1.9l-0.4-2.9c2.2-0.7,5-2,6.4-2.9h2.5v22.3H27z"/>
</g>
</svg>
